<?xml version="1.0" encoding="UTF-8"?>
<svg width="212px" height="784px" viewBox="0 0 212 784" version="1.1" xmlns="http://www.w3.org/2000/svg" xmlns:xlink="http://www.w3.org/1999/xlink">
    <!-- Generator: Sketch 52.6 (67491) - http://www.bohemiancoding.com/sketch -->
    <title>Group 57</title>
    <desc>Created with Sketch.</desc>
    <defs>
        <polygon id="path-1" points="0 0.771054545 211.677859 0.771054545 211.677859 228 0 228"></polygon>
        <polygon id="path-3" points="0.667215504 0.770888727 106.677341 0.770888727 106.677341 227.999834 0.667215504 227.999834"></polygon>
    </defs>
    <g id="Working-File" stroke="none" stroke-width="1" fill="none" fill-rule="evenodd">
        <g id="Intro-Copy-3" transform="translate(-1021.000000, 0.000000)">
            <g id="Ornaments" transform="translate(55.000000, -500.000000)">
                <g id="Group-57" transform="translate(966.000000, 390.000000)">
                    <g id="Group-3" transform="translate(0.027248, 666.000000)">
                        <mask id="mask-2" fill="white">
                            <use xlink:href="#path-1"></use>
                        </mask>
                        <g id="Clip-2"></g>
                        <path d="M131.889423,19.3120145 C131.872861,19.3078691 131.862095,19.3028945 131.845533,19.29792 C126.480111,17.7118691 124.638361,13.5083782 124.002361,10.8677236 C123.813548,9.90929455 123.710033,8.75271273 123.659517,7.62597818 L123.659517,0.771054545 L88.3797359,0.771054545 L88.3797359,7.62597818 C88.3292203,8.75271273 88.2257047,9.90929455 88.0402047,10.8677236 C87.4331891,13.3815273 85.7131734,17.2931782 80.9241266,19.0342691 C34.4936422,30.2535273 -0.0002484375,72.1093527 -0.0002484375,122.037207 C-0.0002484375,180.55776 47.3858922,228 105.838267,228 C164.29147,228 211.678439,180.55776 211.678439,122.037207 C211.678439,72.5164364 177.743533,30.9317236 131.889423,19.3120145" id="Fill-1" fill="#9A1B23" mask="url(#mask-2)"></path>
                    </g>
                    <g id="Group-6" transform="translate(105.027248, 666.000000)">
                        <mask id="mask-4" fill="white">
                            <use xlink:href="#path-3"></use>
                        </mask>
                        <g id="Clip-5"></g>
                        <path d="M106.677673,122.037041 C106.677673,72.5162705 72.688169,30.9315578 26.7602853,19.3118487 C26.7445256,19.3077033 26.7329132,19.3027287 26.7171535,19.2985833 C21.3422698,17.7117033 19.498386,13.5082124 18.8605333,10.8683869 C18.6714171,9.90912873 18.5677349,8.75254691 18.5179674,7.62581236 L18.5179674,0.770888727 L0.667215504,0.770888727 L0.667215504,227.999834 C59.2144636,227.999834 106.677673,180.557594 106.677673,122.037041" id="Fill-4" fill="#BD2027" mask="url(#mask-4)"></path>
                    </g>
                    <path d="M188.027248,787.500415 C188.027248,741.936582 151.090851,705 105.527248,705 C59.9636445,705 23.027248,741.936582 23.027248,787.500415 C23.027248,833.064248 59.9636445,870 105.527248,870 C151.090851,870 188.027248,833.064248 188.027248,787.500415" id="Fill-7" fill="#FEFEFE"></path>
                    <path d="M176.027248,787.5 C176.027248,748.563817 144.463431,717 105.527248,717 C66.5894105,717 35.027248,748.563817 35.027248,787.5 C35.027248,826.435355 66.5894105,858 105.527248,858 C144.463431,858 176.027248,826.435355 176.027248,787.5" id="Fill-9" fill="#FCE0D8"></path>
                    <path d="M95.7279733,619.738865 C94.084094,621.398701 91.8988469,622.313845 89.5751679,622.313845 C87.2539608,622.313845 85.0695377,621.398701 83.4264824,619.738865 C80.0208919,616.300042 80.0208919,610.70244 83.4264824,607.263617 C85.0695377,605.602954 87.2539608,604.689465 89.5751679,604.689465 C91.8988469,604.689465 94.084094,605.602954 95.7271493,607.263617 L101.902203,613.501655 L95.7279733,619.738865 Z M116.327965,607.263617 C117.97102,605.602127 120.156267,604.686983 122.477474,604.686983 C124.798681,604.686983 126.98228,605.602127 128.626983,607.264445 C132.033398,610.700785 132.033398,616.295905 128.625335,619.738037 C126.983928,621.397046 124.800329,622.311362 122.477474,622.311362 C120.156267,622.311362 117.97102,621.397046 116.326317,619.736383 L110.152911,613.5 L116.327965,607.263617 Z M112.178302,623.878525 C114.929637,626.657054 118.586548,628.186155 122.477474,628.186155 C126.370872,628.186155 130.027783,626.655399 132.774998,623.878525 C138.444939,618.153498 138.444115,608.842365 132.775822,603.121475 C130.026135,600.342946 126.369224,598.81219 122.477474,598.81219 C118.585724,598.81219 114.927989,600.342946 112.178302,603.121475 L108.952344,606.379089 L108.952344,1.32602263e-14 L103.101946,1.32602263e-14 L103.101946,606.379916 L99.8759875,603.121475 C97.1254767,600.342946 93.4677422,598.814672 89.5751679,598.814672 C85.6842415,598.814672 82.025683,600.344601 79.2759962,603.121475 C73.6109986,608.84402 73.6109986,618.157635 79.2759962,623.881008 C82.025683,626.657882 85.6842415,628.188638 89.5751679,628.188638 C93.4677422,628.188638 97.1254767,626.658709 99.8759875,623.881008 L103.101946,620.623394 L103.101946,637 L108.952344,637 L108.952344,620.620911 L112.178302,623.878525 Z" id="Fill-11" fill="#FAA919"></path>
                    <polygon id="Fill-13" fill="#FAA919" points="106.027248 764 59.027248 764 82.5276617 788"></polygon>
                    <polygon id="Fill-15" fill="#FAA919" points="129.027248 740 82.027248 740 105.527662 764"></polygon>
                    <polygon id="Fill-17" fill="#FAA919" points="129.527248 788 153.027248 764 106.027248 764"></polygon>
                    <polygon id="Fill-19" fill="#FAA919" points="82.527248 787 59.027248 811 106.027248 811"></polygon>
                    <polygon id="Fill-21" fill="#FAA919" points="106.027248 811 153.027248 811 129.526834 787"></polygon>
                    <polygon id="Fill-23" fill="#FAA919" points="82.027248 835 129.027248 835 105.526834 811"></polygon>
                    <polygon id="Fill-25" fill="#223328" points="105.527248 717 82.027248 741 129.027248 741"></polygon>
                    <polygon id="Fill-27" fill="#223328" points="82.527248 740 59.027248 764 106.027248 764"></polygon>
                    <polygon id="Fill-29" fill="#223328" points="153.027248 764 129.527662 740 106.027248 764"></polygon>
                    <polygon id="Fill-31" fill="#223328" points="105.527248 858 129.027248 834 82.027248 834"></polygon>
                    <polygon id="Fill-33" fill="#223328" points="129.527248 835 153.027248 811 106.027248 811"></polygon>
                    <polygon id="Fill-35" fill="#223328" points="59.027248 811 82.5268342 835 106.027248 811"></polygon>
                    <polygon id="Fill-37" fill="#223328" points="105.527248 764 82.027248 787.499586 105.527248 811 129.027248 787.499586"></polygon>
                    <polygon id="Fill-39" fill="#223328" points="58.527248 764 35.027248 787.499586 58.527248 811 82.027248 787.499586"></polygon>
                    <polygon id="Fill-41" fill="#223328" points="152.527248 764 129.027248 787.499586 152.527248 811 176.027248 787.499586"></polygon>
                    <path d="M112.027248,787.999577 C112.027248,784.685445 109.340958,782 106.026825,782 C102.713538,782 100.027248,784.685445 100.027248,787.999577 C100.027248,791.31371 102.713538,794 106.026825,794 C109.340958,794 112.027248,791.31371 112.027248,787.999577" id="Fill-43" fill="#FEFEFE"></path>
                    <path d="M65.027248,787.999577 C65.027248,784.685445 62.3409583,782 59.0268255,782 C55.7135377,782 53.027248,784.685445 53.027248,787.999577 C53.027248,791.31371 55.7135377,794 59.0268255,794 C62.3409583,794 65.027248,791.31371 65.027248,787.999577" id="Fill-45" fill="#BD2027"></path>
                    <path d="M159.027248,787.999577 C159.027248,784.685445 156.340958,782 153.026825,782 C149.713538,782 147.027248,784.685445 147.027248,787.999577 C147.027248,791.31371 149.713538,794 153.026825,794 C156.340958,794 159.027248,791.31371 159.027248,787.999577" id="Fill-47" fill="#BD2027"></path>
                    <path d="M106.027248,747 C109.341147,747 112.027248,744.31371 112.027248,740.999577 C112.027248,737.68629 109.341147,735 106.027248,735 C102.713349,735 100.027248,737.68629 100.027248,740.999577 C100.027248,744.31371 102.713349,747 106.027248,747" id="Fill-49" fill="#BD2027"></path>
                    <path d="M106.027248,841 C109.341147,841 112.027248,838.31371 112.027248,834.999577 C112.027248,831.68629 109.341147,829 106.027248,829 C102.713349,829 100.027248,831.68629 100.027248,834.999577 C100.027248,838.31371 102.713349,841 106.027248,841" id="Fill-51" fill="#BD2027"></path>
                    <path d="M117.277869,637 L93.7782822,637 C87.3152961,637 82.027248,642.39981 82.027248,649.000423 L82.027248,661 L129.027248,661 L129.027248,649.000423 C129.027248,642.39981 123.740027,637 117.277869,637" id="Fill-53" fill="#FCE0D8"></path>
                    <path d="M130.027248,649 C130.027248,642.39962 124.626213,637 118.026825,637 L106.027248,637 L106.027248,661 L130.027248,661 L130.027248,649 Z" id="Fill-55" fill="#FEFEFE"></path>
                </g>
            </g>
        </g>
    </g>
</svg>