
<svg width="161px" height="483px" viewBox="0 0 161 483" version="1.1" xmlns="http://www.w3.org/2000/svg" xmlns:xlink="http://www.w3.org/1999/xlink">
    <!-- Generator: Sketch 52.6 (67491) - http://www.bohemiancoding.com/sketch -->
    <title>Group 49</title>
    <desc>Created with Sketch.</desc>
    <defs>
        <polygon id="path-1" points="0 0.585054545 160.755984 0.585054545 160.755984 173 0 173"></polygon>
        <polygon id="path-3" points="0.505653488 0.584928727 80.7563721 0.584928727 80.7563721 172.999874 0.505653488 172.999874"></polygon>
    </defs>
    <g id="Working-File" stroke="none" stroke-width="1" fill="none" fill-rule="evenodd">
        <g id="Intro-Copy-3" transform="translate(-1214.000000, 0.000000)">
            <g id="Ornaments" transform="translate(55.000000, -410.000000)">
                <g id="Group-49" transform="translate(1158.176247, 33.000000)">
                    <g id="Group-3" transform="translate(0.823753, 687.000000)">
                        <mask id="mask-2" fill="white">
                            <use xlink:href="#path-1"></use>
                        </mask>
                        <g id="Clip-2"></g>
                        <path d="M100.161936,14.6534145 C100.149358,14.6502691 100.141182,14.6464945 100.128604,14.64272 C96.0539207,13.4392691 94.6552332,10.2497782 94.1722332,8.24612364 C94.0288426,7.51889455 93.9508582,6.64131273 93.911866,5.78637818 L93.911866,0.585054545 L67.119202,0.585054545 L67.119202,5.78637818 C67.0808387,6.64131273 67.0022254,7.51889455 66.8613504,8.24612364 C66.4003621,10.1535273 65.0941238,13.1215782 61.457159,14.4426691 C26.1962723,22.9555273 -0.000188671875,54.7145527 -0.000188671875,92.5984073 C-0.000188671875,137.00216 35.9870848,173 80.3778035,173 C124.769151,173 160.756425,137.00216 160.756425,92.5984073 C160.756425,55.0234364 134.985733,23.4701236 100.161936,14.6534145" id="Fill-1" fill="#E29225" mask="url(#mask-2)"></path>
                    </g>
                    <g id="Group-6" transform="translate(80.823753, 687.000000)">
                        <mask id="mask-4" fill="white">
                            <use xlink:href="#path-3"></use>
                        </mask>
                        <g id="Clip-5"></g>
                        <path d="M80.7565605,92.5982815 C80.7565605,55.0233105 55.0268163,23.4699978 20.2583512,14.6532887 C20.2464209,14.6501433 20.2376302,14.6463687 20.2257,14.6432233 C16.1568628,13.4391433 14.7610256,10.2496524 14.2781651,8.24662691 C14.1350023,7.51876873 14.0571419,6.64118691 14.0188395,5.78625236 L14.0188395,0.584928727 L0.505653488,0.584928727 L0.505653488,172.999874 C44.8264674,172.999874 80.7565605,137.002034 80.7565605,92.5982815" id="Fill-4" fill="#FAA919" mask="url(#mask-4)"></path>
                    </g>
                    <path d="M144.823753,780 C144.823753,745.758262 117.065492,718 82.8237533,718 C48.582015,718 20.8237533,745.758262 20.8237533,780 C20.8237533,814.241738 48.582015,842 82.8237533,842 C117.065492,842 144.823753,814.241738 144.823753,780" id="Fill-7" fill="#FEFEFE"></path>
                    <path d="M81.8240687,779 L43.8237533,816.476676 C62.8425173,835.233675 92.5721869,836.992805 113.598536,821.752199 C115.773893,820.175327 117.856534,818.417441 119.823753,816.476676 L81.8240687,779 Z" id="Fill-9" fill="#FCE0D8"></path>
                    <path d="M119.823753,741.522452 C117.856534,739.58295 115.773893,737.825082 113.599167,736.248226 C92.5721869,721.007771 62.8425173,722.765639 43.8237533,741.522452 L81.8240687,779 L119.823753,741.522452 Z" id="Fill-11" fill="#FCE0D8"></path>
                    <path d="M44.3462349,742 C23.6495928,762.98644 23.6495928,797.01293 44.3462349,818 L81.8237533,780.000631 L44.3462349,742 Z" id="Fill-13" fill="#F1B190"></path>
                    <path d="M119.30043,818 C139.998195,797.01356 139.998195,762.98707 119.30043,742 L81.8237533,780.000631 L119.30043,818 Z" id="Fill-15" fill="#F1B190"></path>
                    <path d="M95.8237533,748.5 C95.8237533,755.95634 89.7788259,762 82.3237533,762 C74.8674133,762 68.8237533,755.95634 68.8237533,748.5 C68.8237533,741.043026 74.8674133,735 82.3237533,735 C89.7788259,735 95.8237533,741.043026 95.8237533,748.5" id="Fill-17" fill="#FEFEFE"></path>
                    <path d="M95.8237533,809.5 C95.8237533,816.956974 89.7788259,823 82.3237533,823 C74.8674133,823 68.8237533,816.956974 68.8237533,809.5 C68.8237533,802.044927 74.8674133,796 82.3237533,796 C89.7788259,796 95.8237533,802.044927 95.8237533,809.5" id="Fill-19" fill="#FEFEFE"></path>
                    <path d="M113.323753,793 C105.866779,793 99.8237533,786.95634 99.8237533,779.5 C99.8237533,772.044927 105.866779,766 113.323753,766 C120.780727,766 126.823753,772.044927 126.823753,779.5 C126.823753,786.95634 120.780727,793 113.323753,793" id="Fill-21" fill="#FEFEFE"></path>
                    <path d="M51.3234365,793 C43.8672714,793 37.8237533,786.95634 37.8237533,779.5 C37.8237533,772.044927 43.8672714,766 51.3234365,766 C58.778334,766 64.8237533,772.044927 64.8237533,779.5 C64.8237533,786.95634 58.778334,793 51.3234365,793" id="Fill-23" fill="#FEFEFE"></path>
                    <path d="M113.323454,788 C108.628267,788 104.823753,784.194888 104.823753,779.499701 C104.823753,774.805112 108.628267,771 113.323454,771 C118.018641,771 121.823753,774.805112 121.823753,779.499701 C121.823753,784.194888 118.018641,788 113.323454,788" id="Fill-25" fill="#9A1B23"></path>
                    <path d="M50.323454,788 C45.6288658,788 41.8237533,784.194888 41.8237533,779.499701 C41.8237533,774.805112 45.6288658,771 50.323454,771 C55.0180423,771 58.8237533,774.805112 58.8237533,779.499701 C58.8237533,784.194888 55.0180423,788 50.323454,788" id="Fill-27" fill="#9A1B23"></path>
                    <path d="M73.8237533,810.5 C73.8237533,805.804979 77.6282673,802 82.323454,802 C87.0168451,802 90.8237533,805.804979 90.8237533,810.5 C90.8237533,815.195021 87.0168451,819 82.323454,819 C77.6282673,819 73.8237533,815.195021 73.8237533,810.5" id="Fill-29" fill="#9A1B23"></path>
                    <path d="M73.8237533,747.500299 C73.8237533,742.805112 77.6282673,739 82.323454,739 C87.0168451,739 90.8237533,742.805112 90.8237533,747.500299 C90.8237533,752.19369 87.0168451,756 82.323454,756 C77.6282673,756 73.8237533,752.19369 73.8237533,747.500299" id="Fill-31" fill="#9A1B23"></path>
                    <path d="M86.8237533,779.499683 C86.8237533,777.014084 84.8088942,775 82.3231195,775 C79.8379787,775 77.8237533,777.014084 77.8237533,779.499683 C77.8237533,781.985283 79.8379787,784 82.3231195,784 C84.8088942,784 86.8237533,781.985283 86.8237533,779.499683" id="Fill-33" fill="#BD2027"></path>
                    <polygon id="Fill-35" fill="#223328" points="106.823753 754 94.8235542 760.000597 88.8237533 772 100.822757 765.999403"></polygon>
                    <polygon id="Fill-37" fill="#223328" points="74.8237533 786 62.8231558 791.999801 56.8237533 804 68.8243509 798.000199"></polygon>
                    <polygon id="Fill-39" fill="#223328" points="106.823753 804 100.822757 791.999801 88.8237533 786 94.8235542 798.000199"></polygon>
                    <polygon id="Fill-41" fill="#223328" points="74.8237533 772 68.8243509 760.000597 56.8237533 754 62.8249484 765.999403"></polygon>
                    <path d="M89.7982356,643.223196 C91.0709312,641.950565 92.7621171,641.249604 94.5598394,641.249604 C96.3575618,641.249604 98.0487477,641.950565 99.3214433,643.223196 C101.95806,645.855921 101.95806,650.142178 99.3208053,652.776804 C98.0493857,654.048801 96.3581997,654.749129 94.5598394,654.749129 C92.7621171,654.749129 91.0709312,654.048801 89.7982356,652.776804 L85.0174935,648 L89.7982356,643.223196 Z M73.8490318,652.778705 C72.5769742,654.050069 70.8857883,654.75103 69.0880659,654.75103 C67.2903436,654.75103 65.5985197,654.050069 64.3264621,652.778705 C61.6898452,650.144713 61.6898452,645.857188 64.3271,643.223196 C65.5985197,641.951199 67.2897056,641.251505 69.0880659,641.251505 C70.8857883,641.251505 72.5769742,641.951199 73.8490318,643.223196 L78.6297739,648.001901 L73.8490318,652.778705 Z M86.5861945,655.950143 C88.715647,658.077744 91.5474743,659.24897 94.5598394,659.24897 C97.5734805,659.24897 100.40467,658.07711 102.532847,655.950143 C106.920616,651.565015 106.920616,644.43245 102.533484,640.051125 C100.40467,637.922256 97.5734805,636.749762 94.5598394,636.749762 C91.5468364,636.749762 88.715647,637.922256 86.5855565,640.050491 L84.088649,642.545685 L84.088649,-7.97174826e-14 L79.5592563,-7.97174826e-14 L79.5592563,642.546319 L77.0623489,640.050491 C74.9328963,637.923524 72.101069,636.751664 69.0880659,636.751664 C66.0744249,636.751664 63.2425976,637.923524 61.1150589,640.050491 C56.7266515,644.434351 56.7266515,651.56755 61.1150589,655.95141 C63.2438734,658.078378 66.0744249,659.250871 69.0880659,659.250871 C72.101069,659.250871 74.9328963,658.078378 77.0623489,655.95141 L79.5592563,653.456216 L79.5592563,666 L84.088649,666 L84.088649,653.454949 L86.5861945,655.950143 Z" id="Fill-43" fill="#BD2027"></path>
                    <path d="M91.8235949,666 L73.8239118,666 C68.8741732,666 64.8237533,669.824865 64.8237533,674.500299 L64.8237533,683 L100.823753,683 L100.823753,674.500299 C100.823753,669.824865 96.7739672,666 91.8235949,666" id="Fill-45" fill="#FCE0D8"></path>
                    <path d="M98.8237533,674.5 C98.8237533,669.824731 94.9981547,666 90.3231547,666 L81.8237533,666 L81.8237533,683 L98.8237533,683 L98.8237533,674.5 Z" id="Fill-47" fill="#FEFEFE"></path>
                </g>
            </g>
        </g>
    </g>
</svg>
