
<svg width="237px" height="748px" viewBox="0 0 237 748" version="1.1" xmlns="http://www.w3.org/2000/svg" xmlns:xlink="http://www.w3.org/1999/xlink">
    <!-- Generator: Sketch 52.6 (67491) - http://www.bohemiancoding.com/sketch -->
    <title>Group 47</title>
    <desc>Created with Sketch.</desc>
    <defs>
        <polygon id="path-1" points="9.2578125e-05 0.858981818 236.640797 0.858981818 236.640797 254 9.2578125e-05 254"></polygon>
        <polygon id="path-3" points="0.743796124 0.858797091 118.642078 0.858797091 118.642078 253.999815 0.743796124 253.999815"></polygon>
    </defs>
    <g id="Working-File" stroke="none" stroke-width="1" fill="none" fill-rule="evenodd">
        <g id="Intro-Copy-3" transform="translate(-55.000000, 0.000000)">
            <g id="Ornaments" transform="translate(55.000000, -410.000000)">
                <g id="Group-47" transform="translate(0.000000, 380.000000)">
                    <g id="Group-3" transform="translate(0.000000, 524.000000)">
                        <mask id="mask-2" fill="white">
                            <use xlink:href="#path-1"></use>
                        </mask>
                        <g id="Clip-2"></g>
                        <path d="M147.443718,21.5142618 C147.425202,21.5096436 147.413167,21.5041018 147.394651,21.49856 C141.396514,19.7316436 139.337577,15.0488073 138.626577,12.1070255 C138.415499,11.0393018 138.299776,9.75082909 138.243304,8.49560727 L138.243304,0.858981818 L98.8031707,0.858981818 L98.8031707,8.49560727 C98.746698,9.75082909 98.6309754,11.0393018 98.4236004,12.1070255 C97.7450027,14.9074909 95.8221551,19.2652073 90.4683621,21.2048436 C38.5625848,33.7034909 9.2578125e-05,80.3323491 9.2578125e-05,135.953731 C9.2578125e-05,201.14768 52.9751473,254 118.320491,254 C183.666761,254 236.640889,201.14768 236.640889,135.953731 C236.640889,80.7858545 198.706077,34.4590255 147.443718,21.5142618" id="Fill-1" fill="#E29225" mask="url(#mask-2)"></path>
                    </g>
                    <g id="Group-6" transform="translate(118.000000, 524.000000)">
                        <mask id="mask-4" fill="white">
                            <use xlink:href="#path-3"></use>
                        </mask>
                        <g id="Clip-5"></g>
                        <path d="M118.642354,135.953546 C118.642354,80.7856698 80.8418659,34.4588407 29.7631915,21.5140771 C29.7447419,21.5094589 29.7327496,21.5039171 29.7143,21.4992989 C23.7375481,19.7314589 21.6859512,15.0486225 20.9765636,12.1077644 C20.7671605,11.0391171 20.6518504,9.75064436 20.5955791,8.49542255 L20.5955791,0.858797091 L0.743796124,0.858797091 L0.743796124,253.999815 C65.8570907,253.999815 118.642354,201.147495 118.642354,135.953546" id="Fill-4" fill="#FAA919" mask="url(#mask-4)"></path>
                    </g>
                    <path d="M211,659 C211,608.189679 169.813098,567 119,567 C68.1915296,567 27,608.189679 27,659 C27,709.813098 68.1915296,751 119,751 C169.813098,751 211,709.813098 211,659" id="Fill-7" fill="#FEFEFE"></path>
                    <path d="M119,658 L40,658 C40,697.540332 69.0493398,730.294666 106.968969,736.088586 C110.891849,736.688469 114.910228,737 118.999073,737 L119,658 Z" id="Fill-9" fill="#FCE0D8"></path>
                    <path d="M198,658 C198,653.911107 197.687538,649.891754 197.089503,645.969755 C191.296441,608.048754 158.539869,579 119,579 L119,658 L198,658 Z" id="Fill-11" fill="#FCE0D8"></path>
                    <path d="M119,579 C75.3708233,579 40.0009272,614.370311 40,658 L119,658 L119,579 Z" id="Fill-13" fill="#F1B190"></path>
                    <path d="M119,737 C162.631031,737 198,701.630104 198,658 L119.000927,658 L119,737 Z" id="Fill-15" fill="#F1B190"></path>
                    <path d="M126.071247,608.218386 C129.976251,604.507784 129.976251,598.493219 126.071247,594.782617 C122.166243,591.073799 115.834109,591.071123 111.929105,594.782617 C108.023162,598.493219 108.024101,604.507784 111.929105,608.218386 C115.83317,611.927205 122.166243,611.927205 126.071247,608.218386" id="Fill-17" fill="#BD2027"></path>
                    <path d="M183.071247,665.216461 C186.976251,661.508644 186.976251,655.491579 183.071247,651.78287 C179.166243,648.072377 172.834109,648.072377 168.929105,651.78287 C165.023162,655.491579 165.024101,661.508644 168.929105,665.216461 C172.834109,668.927846 179.165304,668.927846 183.071247,665.216461" id="Fill-19" fill="#BD2027"></path>
                    <path d="M69.0705944,665.216461 C72.9764685,661.508644 72.9764685,655.491579 69.0705944,651.78287 C65.1665982,648.072377 58.8345754,648.072377 54.9287014,651.78287 C51.0237662,655.491579 51.0237662,661.508644 54.9287014,665.216461 C58.8336365,668.927846 65.1665982,668.927846 69.0705944,665.216461" id="Fill-21" fill="#BD2027"></path>
                    <path d="M126.071247,722.218101 C129.976251,718.507564 129.976251,712.493105 126.071247,708.782568 C122.166243,705.073815 115.834109,705.071139 111.929105,708.782568 C108.023162,712.493105 108.024101,718.507564 111.929105,722.218101 C115.83317,725.925962 122.166243,725.928638 126.071247,722.218101" id="Fill-23" fill="#BD2027"></path>
                    <path d="M133.055544,645 L133.05918,645 L166,611.759831 C162.486567,608.215387 157.642302,606.014786 152.298066,606.00011 C141.607776,605.964335 132.967367,614.683263 133.000093,625.470701 L133.055544,645 Z" id="Fill-25" fill="#FEFEFE"></path>
                    <path d="M152.527928,644.999907 C163.312363,645.032635 172.033841,636.39175 171.999901,625.700871 C171.984308,620.358158 169.784675,615.511808 166.239397,612 L133,644.942635 L152.527928,644.999907 Z" id="Fill-27" fill="#223328"></path>
                    <path d="M105.94264,672 L105.939912,672 L73,705.239266 C76.5151542,708.783711 81.3583767,710.98523 86.7033745,710.999907 C97.390643,711.032929 106.032632,702.313997 105.999907,691.526555 L105.94264,672 Z" id="Fill-29" fill="#FEFEFE"></path>
                    <path d="M86.4734451,672.000078 C75.68692,671.97008 66.9670707,680.610255 67.0000935,691.297528 C67.0156876,696.642529 69.2162891,701.485753 72.7598172,705 L106,672.060982 L86.4734451,672.000078 Z" id="Fill-31" fill="#223328"></path>
                    <path d="M152.527928,672.000093 L133,672.055542 L133,672.060997 L166.239397,705 C169.783758,701.485755 171.982473,696.642532 171.999901,691.297535 C172.033841,680.607539 163.315115,671.967368 152.527928,672.000093" id="Fill-33" fill="#FEFEFE"></path>
                    <path d="M133.000093,691.526555 C132.967367,702.311245 141.608685,711.032929 152.298066,710.999907 C157.640484,710.984312 162.486567,708.783711 166,705.239266 L133.05918,672 L133.000093,691.526555 Z" id="Fill-35" fill="#223328"></path>
                    <path d="M106,644.944454 L106,644.939 L72.7616518,612 C69.2162891,615.512621 67.0147703,620.35611 67.0000935,625.70322 C66.9670707,636.391987 75.6860027,645.032634 86.4734451,644.999907 L106,644.944454 Z" id="Fill-37" fill="#FEFEFE"></path>
                    <path d="M105.999912,625.472075 C106.031729,614.686628 97.3904096,605.964332 86.701936,606.00011 C81.3586082,606.012953 76.5134335,608.213709 73,611.760237 L105.939007,645 L105.999912,625.472075 Z" id="Fill-39" fill="#223328"></path>
                    <path d="M107.036567,473.687544 C105.207984,475.546309 102.776904,476.568259 100.191762,476.568259 C97.6075357,476.568259 95.177373,475.546309 93.3469561,473.687544 C89.5577363,469.841345 89.5577363,463.581898 93.3487902,459.732922 C95.1755389,457.874157 97.6066187,456.852207 100.191762,456.852207 C102.776904,456.852207 105.207984,457.874157 107.036567,459.732922 L113.908884,466.711621 L107.036567,473.687544 Z M129.962631,459.731071 C131.79213,457.874157 134.22321,456.850355 136.807436,456.850355 C139.391662,456.850355 141.822742,457.874157 143.652242,459.731071 C147.442378,463.579121 147.442378,469.838568 143.651324,473.687544 C141.823659,475.543532 139.393496,476.568259 136.80927,476.568259 C134.22321,476.568259 131.79213,475.543532 129.963548,473.687544 L123.091231,466.708844 L129.962631,459.731071 Z M125.345321,478.321497 C128.406409,481.428078 132.477161,483.140585 136.80927,483.140585 C141.140462,483.140585 145.210297,481.428078 148.268634,478.321497 C154.576969,471.91857 154.576969,461.499119 148.269551,455.097118 C145.210297,451.990537 141.139545,450.277104 136.807436,450.277104 C132.477161,450.277104 128.406409,451.990537 125.345321,455.097118 L121.7551,458.742445 L121.7551,8.55218674e-15 L115.244098,8.55218674e-15 L115.244098,458.744296 L111.653876,455.098969 C108.594622,451.992388 104.523871,450.279881 100.191762,450.279881 C95.8596526,450.279881 91.7898179,451.992388 88.731481,455.098969 C82.4231454,461.501896 82.4231454,471.921347 88.7296469,478.321497 C91.7898179,481.430855 95.8596526,483.140585 100.191762,483.140585 C104.523871,483.140585 108.594622,481.430855 111.653876,478.321497 L115.244098,474.678021 L115.244098,493 L121.7551,493 L121.7551,474.67617 L125.345321,478.321497 Z" id="Fill-41" fill="#BD2027"></path>
                    <path d="M132.749767,493 L106.250233,493 C98.9621851,493 93,498.849794 93,506.000458 L93,519 L146,519 L146,506.000458 C146,498.849794 140.036882,493 132.749767,493" id="Fill-43" fill="#FCE0D8"></path>
                    <path d="M146,506 C146,498.849588 140.149085,493 132.999085,493 L120,493 L120,519 L146,519 L146,506 Z" id="Fill-45" fill="#FEFEFE"></path>
                </g>
            </g>
        </g>
    </g>
</svg>
