
<svg width="166px" height="393px" viewBox="0 0 166 393" version="1.1" xmlns="http://www.w3.org/2000/svg" xmlns:xlink="http://www.w3.org/1999/xlink">
    <!-- Generator: Sketch 52.6 (67491) - http://www.bohemiancoding.com/sketch -->
    <title>Group 57</title>
    <desc>Created with Sketch.</desc>
    <defs>
        <polygon id="path-1" points="0.0001296875 0.601963636 165.748406 0.601963636 165.748406 178 0.0001296875 178"></polygon>
        <polygon id="path-3" points="0.525032558 0.601834182 83.7473488 0.601834182 83.7473488 177.999871 0.525032558 177.999871"></polygon>
    </defs>
    <g id="Working-File" stroke="none" stroke-width="1" fill="none" fill-rule="evenodd">
        <g id="Intro-Copy-3" transform="translate(-226.000000, 0.000000)">
            <g id="Ornaments" transform="translate(55.000000, -410.000000)">
                <g id="Group-57" transform="translate(171.000000, 0.000000)">
                    <g id="Group-3" transform="translate(0.100817, 625.000000)">
                        <mask id="mask-2" fill="white">
                            <use xlink:href="#path-1"></use>
                        </mask>
                        <g id="Clip-2"></g>
                        <path d="M103.27288,15.0769236 C103.259911,15.0736873 103.251481,15.0698036 103.238512,15.06592 C99.0372859,13.8276873 97.5958094,10.5460145 97.0971609,8.48445091 C96.9493172,7.73620364 96.8689109,6.83325818 96.8300047,5.95361455 L96.8300047,0.601963636 L69.2046219,0.601963636 L69.2046219,5.95361455 C69.1657156,6.83325818 69.0846609,7.73620364 68.9381141,8.48445091 C68.4628094,10.4469818 67.1160047,13.5008145 63.3667391,14.8600873 C27.0107938,23.6189818 0.0001296875,56.2958982 0.0001296875,95.2746618 C0.0001296875,140.96176 37.1050203,178 82.8743328,178 C128.644942,178 165.748536,140.96176 165.748536,95.2746618 C165.748536,56.6137091 139.178809,24.1484509 103.27288,15.0769236" id="Fill-1" fill="#9A1B23" mask="url(#mask-2)"></path>
                    </g>
                    <g id="Group-6" transform="translate(82.100817, 625.000000)">
                        <mask id="mask-4" fill="white">
                            <use xlink:href="#path-3"></use>
                        </mask>
                        <g id="Clip-5"></g>
                        <path d="M83.7475442,95.2745324 C83.7475442,56.6135796 57.0648465,24.1483215 21.0093116,15.0767942 C20.9962884,15.0735578 20.9878233,15.0696742 20.9748,15.0664378 C16.7559163,13.8275578 15.3077302,10.5458851 14.806986,8.48496873 C14.6591721,7.73607418 14.5777767,6.83312873 14.5380558,5.95348509 L14.5380558,0.601834182 L0.525032558,0.601834182 L0.525032558,177.999871 C46.4873581,177.999871 83.7475442,140.961631 83.7475442,95.2745324" id="Fill-4" fill="#BD2027" mask="url(#mask-4)"></path>
                    </g>
                    <path d="M148.100817,720.5 C148.100817,684.877546 119.22392,656 83.6008174,656 C47.9796616,656 19.1008174,684.877546 19.1008174,720.5 C19.1008174,756.122454 47.9796616,785 83.6008174,785 C119.22392,785 148.100817,756.122454 148.100817,720.5" id="Fill-7" fill="#FCE0D8"></path>
                    <path d="M36.1008174,689 C30.4191753,697.738897 27.1008174,708.220651 27.1008174,719.499676 C27.1008174,730.777406 30.4191753,741.260455 36.1008174,750 L36.1008174,689 Z" id="Fill-9" fill="#FEFEFE"></path>
                    <path d="M46.1008174,678.691471 L46.1008174,761.306577 C48.8589331,763.841984 51.8762558,766.083318 55.1008174,768 L55.1008174,672 C51.8762558,673.91473 48.8589331,676.156064 46.1008174,678.691471" id="Fill-11" fill="#FEFEFE"></path>
                    <path d="M64.1008174,772.621549 C66.9958248,773.66869 70.0036412,774.467995 73.1008174,775 L73.1008174,666 C70.0036412,666.531356 66.9958248,667.330012 64.1008174,668.3791 L64.1008174,772.621549 Z" id="Fill-13" fill="#FEFEFE"></path>
                    <path d="M120.100817,679 L120.100817,761 C123.522478,757.879684 126.549941,754.321542 129.100817,750.409523 L129.100817,689.590477 C126.549941,685.680396 123.522478,682.121608 120.100817,679" id="Fill-15" fill="#FEFEFE"></path>
                    <path d="M101.100817,668 L101.100817,772 C104.245526,770.863381 107.253976,769.436134 110.100817,767.754508 L110.100817,672.24614 C107.253976,670.563866 104.245526,669.134677 101.100817,668" id="Fill-17" fill="#FEFEFE"></path>
                    <path d="M92.1008174,665.775257 C89.1722209,665.273696 86.1694746,665 83.1008174,665 L83.1008174,775 C86.1694746,775 89.1722209,774.726304 92.1008174,774.224743 L92.1008174,665.775257 Z" id="Fill-19" fill="#FEFEFE"></path>
                    <path d="M129.100817,750 C134.783093,741.26212 138.100817,730.778737 138.100817,719.500648 C138.100817,708.221263 134.783093,697.739175 129.100817,689 L129.100817,750 Z" id="Fill-21" fill="#FAA919"></path>
                    <path d="M110.100817,672 L110.100817,768 C113.325379,766.083956 116.342702,763.842607 119.100817,761.307182 L119.100817,678.691516 C116.342702,676.157393 113.325379,673.916695 110.100817,672" id="Fill-23" fill="#FAA919"></path>
                    <path d="M37.1008174,689.590477 L37.1008174,750.41146 C39.6510604,754.321542 42.679157,757.879684 46.1008174,761 L46.1008174,679 C42.679157,682.121608 39.6510604,685.680396 37.1008174,689.590477" id="Fill-25" fill="#FAA919"></path>
                    <path d="M56.1008174,672.246113 L56.1008174,767.753887 C58.9476592,769.43615 61.9561093,770.863388 65.1008174,772 L65.1008174,668 C61.9561093,669.13467 58.9476592,670.561908 56.1008174,672.246113" id="Fill-27" fill="#FAA919"></path>
                    <path d="M74.1008174,665.775257 L74.1008174,774.224743 C77.029414,774.726304 80.0321603,775 83.1008174,775 L83.1008174,665 C80.0321603,665 77.029414,665.273696 74.1008174,665.775257" id="Fill-29" fill="#FAA919"></path>
                    <path d="M93.1008174,666 L93.1008174,775 C96.1979937,774.467995 99.20581,773.66869 102.100817,772.621549 L102.100817,668.3791 C99.20581,667.33131 96.1979937,666.530707 93.1008174,666" id="Fill-31" fill="#FAA919"></path>
                    <path d="M98.8828838,749.216967 C95.173462,745.506256 95.173462,739.492991 98.8828838,735.782281 C102.592975,732.073577 108.608326,732.07157 112.317748,735.782281 C116.029176,739.492991 116.027838,745.508263 112.317748,749.216967 C108.608326,752.927678 102.593644,752.927678 98.8828838,749.216967" id="Fill-33" fill="#471212"></path>
                    <path d="M53.8834836,704.216593 C50.1739311,700.507726 50.1725931,694.49219 53.8834836,690.782654 C57.592367,687.072449 63.6092679,687.072449 67.3181513,690.782654 C71.0283728,694.49219 71.0283728,700.507726 67.3181513,704.2186 C63.6085989,707.927468 57.592367,707.927468 53.8834836,704.216593" id="Fill-35" fill="#471212"></path>
                    <path d="M53.882994,735.78307 C57.5932318,732.07231 63.6081522,732.07231 67.31839,735.78307 C71.0279588,739.491823 71.0286278,745.507843 67.31839,749.217934 C63.6088211,752.927355 57.5932318,752.927355 53.882994,749.217934 C50.1734252,745.507843 50.1734252,739.491823 53.882994,735.78307" id="Fill-37" fill="#471212"></path>
                    <path d="M98.8834468,690.783119 C102.593619,687.072294 108.608434,687.072294 112.317937,690.783119 C116.02811,694.491937 116.028779,700.508063 112.317937,704.216881 C108.609103,707.927706 102.592281,707.927706 98.8834468,704.216881 C95.1726054,700.508063 95.1739433,694.491937 98.8834468,690.783119" id="Fill-39" fill="#471212"></path>
                    <path d="M87.1008174,719.499683 C87.1008174,717.014084 85.0861002,715 82.6005006,715 C80.1161685,715 78.1008174,717.014084 78.1008174,719.499683 C78.1008174,721.985283 80.1161685,724 82.6005006,724 C85.0861002,724 87.1008174,721.985283 87.1008174,719.499683" id="Fill-41" fill="#471212"></path>
                    <polygon id="Fill-43" fill="#223328" points="119.100817 719.499683 105.600184 715 92.1008174 719.499683 105.600817 724"></polygon>
                    <polygon id="Fill-45" fill="#223328" points="74.1008174 719.499683 60.6008174 715 47.1008174 719.499683 60.6001837 724"></polygon>
                    <polygon id="Fill-47" fill="#223328" points="82.6011343 756 87.1008174 742.498099 82.6011343 729 78.1008174 742.5"></polygon>
                    <polygon id="Fill-49" fill="#223328" points="82.6001836 710 87.1008174 696.5 82.6008174 683 78.1008174 696.5"></polygon>
                    <path d="M75.4603087,588.405504 C74.1610965,589.712755 72.4346746,590.433502 70.5994967,590.433502 C68.7636675,590.433502 67.0378969,589.712755 65.7393359,588.405504 C63.0471338,585.697162 63.0471338,581.288612 65.7393359,578.58027 C67.0372457,577.272367 68.7630163,576.552923 70.5988455,576.552923 C72.4346746,576.552923 74.1610965,577.272367 75.4603087,578.58027 L80.3406577,583.493213 L75.4603087,588.405504 Z M91.7411634,578.58027 C93.0403756,577.271716 94.7667974,576.550968 96.6019754,576.550968 C98.4371533,576.550968 100.162924,577.271716 101.462787,578.58027 C104.153687,581.287308 104.153687,585.693904 101.461485,588.403549 C100.164226,589.711452 98.4378046,590.431547 96.6019754,590.431547 C94.7667974,590.431547 93.0397244,589.711452 91.7411634,588.403549 L86.8608144,583.491909 L91.7411634,578.58027 Z M88.4621993,591.665811 C90.636019,593.85412 93.5268475,595.058407 96.6019754,595.058407 C99.6784057,595.058407 102.568583,593.852817 104.7411,591.665811 C109.22094,587.156904 109.220289,579.823657 104.741751,575.318008 C102.568583,573.129699 99.6784057,571.924108 96.6019754,571.924108 C93.5261963,571.924108 90.6353677,573.129699 88.461548,575.318008 L85.9126174,577.883634 L85.9126174,5.22151766e-14 L81.2888547,5.22151766e-14 L81.2888547,577.884286 L78.7392728,575.318008 C76.5661043,573.131002 73.6746245,571.926063 70.5988455,571.926063 C67.5230664,571.926063 64.6322378,573.131002 62.4597206,575.318008 C57.9811831,579.82496 57.9811831,587.160162 62.4597206,591.667766 C64.6328891,593.854772 67.5237176,595.060362 70.5994967,595.060362 C73.6752758,595.060362 76.5661043,593.854772 78.7392728,591.667766 L81.2888547,589.10214 L81.2888547,602 L85.9126174,602 L85.9126174,589.100185 L88.4621993,591.665811 Z" id="Fill-51" fill="#FAA919"></path>
                    <path d="M92.8506546,602 L74.3509803,602 C69.263749,602 65.1008174,606.274849 65.1008174,611.500334 L65.1008174,621 L102.100817,621 L102.100817,611.500334 C102.100817,606.274849 97.9385373,602 92.8506546,602" id="Fill-53" fill="#FCE0D8"></path>
                    <path d="M102.100817,611.5 C102.100817,606.274699 97.8258174,602 92.6001484,602 L83.1008174,602 L83.1008174,621 L102.100817,621 L102.100817,611.5 Z" id="Fill-55" fill="#FEFEFE"></path>
                </g>
            </g>
        </g>
    </g>
</svg>
